<svg width="248" height="44" viewBox="0 0 124 22" fill="#327162" xmlns="http://www.w3.org/2000/svg">
    <path d="M114.917 8.97754C115.313 8.97763 115.671 9.21162 115.831 9.57324L118.159 14.8281L120.248 9.60645C120.4 9.22687 120.768 8.97754 121.177 8.97754H121.556C122.274 8.97763 122.758 9.71312 122.475 10.373L117.735 21.4043C117.578 21.7716 117.216 22.0098 116.816 22.0098H116.437C115.714 22.0096 115.23 21.2665 115.522 20.6055L117.098 17.042H116.558L113.558 10.3887C113.26 9.72694 113.744 8.97754 114.47 8.97754H114.917Z"/>
    <path d="M22.0557 5.23438C23.2917 5.23438 24.3785 5.50952 25.3145 6.06152C26.2504 6.61352 26.9762 7.38222 27.4922 8.36621C28.0201 9.33817 28.2842 10.4661 28.2842 11.75C28.2842 13.034 28.0202 14.1683 27.4922 15.1523C27.1004 15.8902 26.586 16.5051 25.9521 17.001L26.918 18.4844C27.3509 19.1496 26.8738 20.0303 26.0801 20.0303H25.5752C25.2332 20.0302 24.915 19.855 24.7314 19.5664L23.7754 18.0625C23.2386 18.1968 22.6654 18.2656 22.0557 18.2656C20.832 18.2656 19.7522 17.9902 18.8164 17.4385C17.8805 16.8865 17.1481 16.1242 16.6201 15.1523C16.0921 14.1683 15.8281 13.034 15.8281 11.75C15.8281 10.4661 16.0922 9.33817 16.6201 8.36621C17.1481 7.38221 17.8804 6.61352 18.8164 6.06152C19.7522 5.50976 20.832 5.23444 22.0557 5.23438ZM22.0557 7.42969C21.2999 7.42976 20.6401 7.60422 20.0762 7.95215C19.5122 8.30015 19.0737 8.7983 18.7617 9.44629C18.4498 10.0822 18.2939 10.8502 18.2939 11.75C18.2939 12.6378 18.4498 13.4058 18.7617 14.0537C19.0737 14.7017 19.5122 15.2064 20.0762 15.5664C20.64 15.9142 21.3 16.0878 22.0557 16.0879C22.2093 16.0879 22.3589 16.0784 22.5039 16.0645L21.4131 14.3486C20.9899 13.683 21.4681 12.8117 22.2568 12.8115H22.6836C23.0218 12.8115 23.337 12.9832 23.5215 13.2666L24.6748 15.0381C24.9421 14.7583 25.1688 14.4312 25.3506 14.0537C25.6625 13.4058 25.8184 12.6378 25.8184 11.75C25.8184 10.8502 25.6624 10.0822 25.3506 9.44629C25.0386 8.79832 24.6001 8.30015 24.0361 7.95215C23.4841 7.60415 22.8237 7.42969 22.0557 7.42969Z"/>
    <path d="M13 12.5498C13 16.1397 10.0899 19.0498 6.5 19.0498C2.91015 19.0498 0 16.1397 0 12.5498V5.0498H13V12.5498ZM2.5 12.5498C2.5 14.7589 4.29086 16.5498 6.5 16.5498C8.70914 16.5498 10.5 14.7589 10.5 12.5498V7.5498H2.5V12.5498Z"/>
    <path d="M31.625 8.97754C32.1771 8.97754 32.6248 9.42547 32.625 9.97754V14C32.625 14.732 32.7752 15.2842 33.0752 15.6562C33.3871 16.0281 33.8613 16.2138 34.4971 16.2139C34.9049 16.2139 35.2652 16.1242 35.5771 15.9443C35.8891 15.7523 36.1354 15.4818 36.3154 15.1338C36.5073 14.7739 36.6035 14.3361 36.6035 13.8203V9.97754C36.6038 9.42547 37.0514 8.97754 37.6035 8.97754H38.0156C38.5676 8.97768 39.0154 9.42555 39.0156 9.97754V17.0498C39.0156 17.602 38.5678 18.0497 38.0156 18.0498H36.8916L36.6934 16.5742C36.4294 17.0901 36.0394 17.5044 35.5234 17.8164C35.0075 18.1163 34.3954 18.2656 33.6875 18.2656C32.9555 18.2656 32.3249 18.1164 31.7969 17.8164C31.281 17.5044 30.8853 17.0538 30.6094 16.4658C30.3334 15.8658 30.1953 15.1279 30.1953 14.252V9.97754C30.1956 9.42548 30.6432 8.97756 31.1953 8.97754H31.625Z"/>
    <path d="M70.0605 8.76172C70.9365 8.76174 71.7164 8.96605 72.4004 9.37402C73.0963 9.76998 73.6421 10.328 74.0381 11.0479C74.446 11.7558 74.6503 12.5778 74.6504 13.5137C74.6504 14.4497 74.4461 15.278 74.0381 15.998C73.6421 16.706 73.0963 17.2639 72.4004 17.6719C71.7044 18.0679 70.918 18.2656 70.042 18.2656C69.1782 18.2656 68.398 18.0678 67.7021 17.6719C67.0183 17.2639 66.4724 16.7059 66.0645 15.998C65.6685 15.2781 65.4707 14.4561 65.4707 13.5322C65.4707 12.5842 65.6685 11.7559 66.0645 11.0479C66.4724 10.3279 67.0247 9.77 67.7207 9.37402C68.4167 8.9661 69.1966 8.76172 70.0605 8.76172ZM70.0605 10.8682C69.6765 10.8682 69.322 10.9698 68.998 11.1738C68.6742 11.3658 68.4166 11.6599 68.2246 12.0557C68.0446 12.4396 67.9541 12.9258 67.9541 13.5137C67.9541 14.1017 68.0446 14.5942 68.2246 14.9902C68.4166 15.3861 68.6685 15.6801 68.9805 15.8721C69.3043 16.064 69.6582 16.1601 70.042 16.1602C70.4499 16.1602 70.8101 16.0639 71.1221 15.8721C71.4461 15.6801 71.6989 15.3862 71.8789 14.9902C72.0709 14.5942 72.166 14.1017 72.166 13.5137C72.166 12.9258 72.0709 12.4396 71.8789 12.0557C71.6989 11.6597 71.446 11.3658 71.1221 11.1738C70.8102 10.97 70.4564 10.8682 70.0605 10.8682Z"/>
    <path d="M100.273 8.76172C101.125 8.76177 101.863 8.90638 102.487 9.19434C103.111 9.48225 103.591 9.89587 103.927 10.4355C104.263 10.9755 104.431 11.6418 104.431 12.4336V17.0498C104.431 17.6021 103.983 18.0498 103.431 18.0498H102.704C102.516 18.0498 102.354 17.9164 102.317 17.7314L102.263 17.4502C102.211 17.184 101.826 17.1136 101.641 17.3115C101.461 17.5035 101.251 17.6724 101.011 17.8164C100.771 17.9603 100.501 18.0677 100.201 18.1396C99.9012 18.2236 99.5709 18.2656 99.2109 18.2656C98.455 18.2656 97.8309 18.1462 97.3389 17.9062C96.8469 17.6543 96.4812 17.324 96.2412 16.916C96.0133 16.4961 95.8995 16.0342 95.8994 15.5303C95.8994 14.9783 96.0375 14.4923 96.3135 14.0723C96.6014 13.6523 97.0269 13.322 97.5908 13.082C98.1668 12.842 98.887 12.7217 99.751 12.7217H101.001C101.553 12.7217 102.041 12.2589 101.863 11.7363C101.85 11.6978 101.836 11.6601 101.821 11.624C101.701 11.324 101.515 11.102 101.263 10.958C101.011 10.8141 100.675 10.7422 100.255 10.7422C99.799 10.7422 99.4089 10.8439 99.085 11.0479C99.0082 11.0951 98.9382 11.1486 98.876 11.209C98.5276 11.5467 98.1551 11.9482 97.6699 11.9482H97.248C96.6594 11.9482 96.1798 11.4275 96.417 10.8887C96.5137 10.669 96.6351 10.4644 96.7812 10.2744C97.1532 9.79441 97.6393 9.4222 98.2393 9.1582C98.8512 8.89424 99.5295 8.76172 100.273 8.76172ZM100.039 14.2158C99.6671 14.2158 99.3611 14.2644 99.1211 14.3604C98.8931 14.4444 98.7252 14.5703 98.6172 14.7383C98.5092 14.9063 98.4551 15.0985 98.4551 15.3145C98.4551 15.5542 98.5093 15.7523 98.6172 15.9082C98.7251 16.064 98.8812 16.1836 99.085 16.2676C99.289 16.3516 99.5231 16.3936 99.7871 16.3936C100.099 16.3935 100.375 16.3404 100.615 16.2324C100.867 16.1124 101.083 15.9557 101.263 15.7637C101.443 15.5597 101.581 15.332 101.677 15.0801C101.785 14.8162 101.857 14.5342 101.893 14.2344C101.893 14.2244 101.885 14.2158 101.875 14.2158H100.039Z"/>
    <path d="M42.8789 8.97754C43.431 8.97754 43.8787 9.42547 43.8789 9.97754V17.0498C43.8789 17.6021 43.4312 18.0498 42.8789 18.0498H42.4492C41.8969 18.0498 41.4492 17.6021 41.4492 17.0498V9.97754C41.4495 9.42547 41.8971 8.97754 42.4492 8.97754H42.8789Z"/>
    <path d="M52.1025 8.97754C52.6547 8.97754 53.1023 9.42547 53.1025 9.97754V10.5547C53.1025 10.8026 53.0101 11.0417 52.8438 11.2256L48.4941 16.0342H52.1924C52.7447 16.0342 53.1924 16.4897 53.1924 17.042C53.1924 17.5943 52.7447 18.0498 52.1924 18.0498H46.7402C46.1881 18.0496 45.7402 17.602 45.7402 17.0498V16.4883C45.7402 16.2423 45.8312 16.0046 45.9951 15.8213L50.3125 10.9941H46.7949C46.2427 10.9941 45.7951 10.5385 45.7949 9.98633C45.7949 9.43404 46.2426 8.97754 46.7949 8.97754H52.1025Z"/>
    <path d="M59.9287 5.4502C60.9486 5.4502 61.7948 5.62373 62.4668 5.97168C63.1388 6.31968 63.6369 6.78798 63.9609 7.37598C64.2849 7.96387 64.4472 8.63578 64.4473 9.3916C64.4473 10.0876 64.2905 10.7304 63.9785 11.3184C63.6665 11.9061 63.1747 12.3859 62.5029 12.7578C61.8309 13.1178 60.9727 13.2979 59.9287 13.2979H57.6426V17.0498C57.6426 17.6021 57.1949 18.0498 56.6426 18.0498H56.2129C55.6606 18.0498 55.2129 17.6021 55.2129 17.0498V6.4502C55.2129 5.89791 55.6606 5.4502 56.2129 5.4502H59.9287ZM57.6426 11.3359H59.7852C60.5649 11.3359 61.123 11.1623 61.459 10.8145C61.807 10.4545 61.9805 9.9796 61.9805 9.3916C61.9804 8.76789 61.8068 8.28807 61.459 7.95215C61.123 7.6042 60.565 7.42974 59.7852 7.42969H57.6426V11.3359Z"/>
    <path d="M77.1689 8.97754C77.6315 8.97754 78.0338 9.29532 78.1416 9.74512L79.5098 15.4551L81.0859 9.71289C81.2053 9.2788 81.6006 8.97754 82.0508 8.97754H83.2256C83.6757 8.9776 84.0701 9.2789 84.1895 9.71289L85.7568 15.4248L87.1328 9.74316C87.2414 9.29455 87.6429 8.97766 88.1045 8.97754H88.376C89.0434 8.97754 89.5239 9.61941 89.3359 10.2598L87.2588 17.332C87.1337 17.7575 86.7433 18.0496 86.2998 18.0498H85.2842C84.8369 18.0498 84.4442 17.7526 84.3223 17.3223L82.6377 11.3779L80.9541 17.3223C80.8322 17.7525 80.4394 18.0497 79.9922 18.0498H78.9766C78.5328 18.0498 78.1417 17.7577 78.0166 17.332L75.9404 10.2598C75.7524 9.6195 76.2322 8.97779 76.8994 8.97754H77.1689Z"/>
    <path d="M92.6953 8.97754C93.2474 8.97754 93.6951 9.42547 93.6953 9.97754V17.0498C93.6953 17.6021 93.2476 18.0498 92.6953 18.0498H92.2656C91.7133 18.0498 91.2656 17.6021 91.2656 17.0498V9.97754C91.2659 9.42547 91.7135 8.97754 92.2656 8.97754H92.6953Z"/>
    <path d="M108.94 6.51172C109.493 6.51172 109.94 6.95957 109.94 7.51172V7.97754C109.94 8.52982 110.388 8.97754 110.94 8.97754H111.334C111.886 8.97754 112.334 9.42547 112.334 9.97754V10.0117C112.334 10.564 111.886 11.0117 111.334 11.0117H110.94C110.388 11.0117 109.941 11.4596 109.94 12.0117V14.9004C109.94 15.308 110.03 15.5901 110.21 15.7461C110.39 15.9021 110.697 15.9805 111.129 15.9805H111.316C111.869 15.9805 112.316 16.4282 112.316 16.9805V17.0498C112.316 17.6021 111.869 18.0498 111.316 18.0498H110.679C110.043 18.0498 109.485 17.9536 109.005 17.7617C108.537 17.5578 108.17 17.2283 107.906 16.7725C107.642 16.3045 107.511 15.6681 107.511 14.8643V11.7861C107.511 11.3853 107.206 11.0552 106.815 11.0156L106.657 11.0078C106.267 10.9682 105.963 10.6389 105.963 10.2383V9.79395C105.963 9.3434 106.328 8.97773 106.778 8.97754C107.195 8.97754 107.544 8.66472 107.59 8.25098L107.683 7.40332C107.738 6.89624 108.167 6.5118 108.677 6.51172H108.94Z"/>
    <path d="M42.6729 5C43.1169 5 43.4769 5.13248 43.7529 5.39648C44.0409 5.64847 44.1855 5.97222 44.1855 6.36816C44.1855 6.76409 44.0409 7.09443 43.7529 7.3584C43.477 7.6102 43.1167 7.73633 42.6729 7.73633C42.241 7.73627 41.8807 7.61034 41.5928 7.3584C41.3168 7.09443 41.1787 6.76409 41.1787 6.36816C41.1787 5.97238 41.3171 5.64843 41.5928 5.39648C41.8807 5.13255 42.241 5.00006 42.6729 5Z"/>
    <path d="M92.4893 5C92.9333 5 93.2933 5.13248 93.5693 5.39648C93.8573 5.64847 94.002 5.97221 94.002 6.36816C94.0019 6.76409 93.8573 7.09443 93.5693 7.3584C93.2934 7.6102 92.9331 7.73633 92.4893 7.73633C92.0574 7.73627 91.6971 7.61034 91.4092 7.3584C91.1332 7.09443 90.9952 6.76409 90.9951 6.36816C90.9951 5.97238 91.1335 5.64843 91.4092 5.39648C91.6971 5.13255 92.0574 5.00006 92.4893 5Z"/>
</svg>
